<svg width="512" height="512" viewBox="0 0 512 512" fill="none" xmlns="http://www.w3.org/2000/svg">
  <defs>
    <linearGradient id="bgGradient" x1="0" y1="0" x2="512" y2="512" gradientUnits="userSpaceOnUse">
      <stop offset="0%" stopColor="#8B5CF6" />
      <stop offset="50%" stopColor="#4338CA" />
      <stop offset="100%" stopColor="#0F172A" />
    </linearGradient>
    <linearGradient id="neonGradient" x1="100" y1="100" x2="400" y2="400" gradientUnits="userSpaceOnUse">
      <stop offset="0%" stopColor="#F472B6" />
      <stop offset="100%" stopColor="#A78BFA" />
    </linearGradient>
  </defs>
  <rect x="0" y="0" width="512" height="512" rx="115" fill="url(#bgGradient)" />
  <path d="M0 115C0 51.4873 51.4873 0 115 0H397C460.513 0 512 51.4873 512 115V256L0 120V115Z" fill="white" fillOpacity="0.1" />
  <g transform="translate(106, 116)" style="filter: drop-shadow(0px 10px 20px rgba(0,0,0,0.5));">
    <path d="M36.4,20 L150,230 L263.6,20" stroke="url(#neonGradient)" stroke-width="32" stroke-linecap="round" stroke-linejoin="round" fill="none"/>
    <line x1="150" y1="230" x2="150" y2="330" stroke="url(#neonGradient)" stroke-width="32" stroke-linecap="round" />
    <line x1="100" y1="330" x2="200" y2="330" stroke="url(#neonGradient)" stroke-width="32" stroke-linecap="round" />
    <path d="M75,90 L150,225 L225,90 Z" fill="#EC4899" fill-opacity="0.3" />
    <path d="M75,90 L150,225 L225,90 Z" stroke="#EC4899" stroke-width="4" stroke-opacity="0.5" fill="none"/>
    <circle cx="200" cy="50" r="15" fill="#34D399" fill-opacity="0.9" />
    <circle cx="230" cy="20" r="8" fill="#34D399" fill-opacity="0.6" />
    <circle cx="180" cy="80" r="6" fill="#F472B6" fill-opacity="0.6" />
  </g>
</svg>
